<svg xmlns="http://www.w3.org/2000/svg" width="375" viewBox="0 0 375 375" height="375" version="1.0"><path fill="#FFF" d="M-37.5 -37.5H412.5V412.5H-37.5z"/><path fill="#FFF" d="M 370.808594 45.148438 L 370.808594 329.851562 C 370.808594 352.480469 352.480469 370.808594 329.851562 370.808594 L 45.148438 370.808594 C 22.519531 370.808594 4.191406 352.480469 4.191406 329.851562 L 4.191406 45.042969 C 4.191406 22.519531 22.519531 4.191406 45.148438 4.191406 L 329.957031 4.191406 C 352.480469 4.191406 370.808594 22.519531 370.808594 45.148438 Z M 370.808594 45.148438"/><path fill="#FFF" d="M 375 45.148438 L 375 329.851562 C 375 354.785156 354.785156 375 329.851562 375 L 45.148438 375 C 20.214844 375 0 354.785156 0 329.851562 L 0 45.042969 C 0 20.214844 20.214844 0 45.148438 0 L 329.957031 0 C 354.785156 0 375 20.214844 375 45.148438 Z M 8.378906 329.851562 C 8.378906 350.175781 24.824219 366.621094 45.148438 366.621094 L 329.957031 366.621094 C 350.175781 366.621094 366.621094 350.175781 366.621094 329.851562 L 366.621094 45.042969 C 366.621094 24.824219 350.175781 8.273438 329.851562 8.273438 L 45.148438 8.273438 C 24.929688 8.273438 8.378906 24.71875 8.378906 44.9375 Z M 8.378906 329.851562"/><path fill="#E5383B" d="M 97.835938 49.753906 C 77.617188 49.753906 61.171875 66.199219 61.171875 86.417969 C 61.171875 106.632812 77.617188 123.078125 97.835938 123.078125 C 118.050781 123.078125 134.496094 106.632812 134.496094 86.417969 C 134.496094 66.097656 118.15625 49.753906 97.835938 49.753906 Z M 277.058594 252.023438 C 256.84375 252.023438 240.398438 268.46875 240.398438 288.6875 C 240.398438 308.902344 256.84375 325.347656 277.058594 325.347656 C 297.277344 325.347656 313.722656 308.902344 313.722656 288.6875 C 313.722656 268.46875 297.382812 252.023438 277.058594 252.023438 Z M 134.496094 288.6875 C 134.496094 268.46875 118.050781 252.023438 97.835938 252.023438 C 77.617188 252.023438 61.171875 268.46875 61.171875 288.6875 C 61.171875 308.902344 77.617188 325.347656 97.835938 325.347656 C 118.050781 325.347656 134.496094 308.902344 134.496094 288.6875 Z M 313.722656 86.417969 C 313.722656 66.199219 297.277344 49.753906 277.058594 49.753906 C 256.84375 49.753906 240.398438 66.199219 240.398438 86.417969 C 240.398438 106.632812 256.84375 123.078125 277.058594 123.078125 C 297.277344 123.078125 313.722656 106.632812 313.722656 86.417969 Z M 97.835938 150.839844 C 77.617188 150.839844 61.171875 167.285156 61.171875 187.5 C 61.171875 207.714844 77.617188 224.160156 97.835938 224.160156 C 118.050781 224.160156 134.496094 207.714844 134.496094 187.5 C 134.496094 167.285156 118.15625 150.839844 97.835938 150.839844 Z M 277.058594 150.839844 C 256.84375 150.839844 240.398438 167.285156 240.398438 187.5 C 240.398438 207.714844 256.84375 224.160156 277.058594 224.160156 C 297.277344 224.160156 313.722656 207.714844 313.722656 187.5 C 313.722656 167.285156 297.382812 150.839844 277.058594 150.839844 Z M 277.058594 150.839844"/></svg>