<svg xmlns="http://www.w3.org/2000/svg" width="375" viewBox="0 0 375 375" height="375" version="1.0"><path fill="#FFF" d="M-37.5 -37.5H412.5V412.5H-37.5z"/><path fill="#FFF" d="M 329.851562 370.808594 L 45.148438 370.808594 C 22.519531 370.808594 4.191406 352.480469 4.191406 329.851562 L 4.191406 45.148438 C 4.191406 22.519531 22.519531 4.191406 45.148438 4.191406 L 329.957031 4.191406 C 352.480469 4.191406 370.808594 22.519531 370.808594 45.148438 L 370.808594 329.957031 C 370.808594 352.480469 352.480469 370.808594 329.851562 370.808594 Z M 329.851562 370.808594"/><path fill="#FFF" d="M 329.851562 375 L 45.148438 375 C 20.214844 375 0 354.785156 0 329.851562 L 0 45.148438 C 0 20.214844 20.214844 0 45.148438 0 L 329.957031 0 C 354.785156 0 375 20.214844 375 45.148438 L 375 329.957031 C 375 354.785156 354.785156 375 329.851562 375 Z M 45.148438 8.378906 C 24.824219 8.378906 8.378906 24.824219 8.378906 45.148438 L 8.378906 329.957031 C 8.378906 350.175781 24.824219 366.621094 45.148438 366.621094 L 329.957031 366.621094 C 350.175781 366.621094 366.726562 350.175781 366.726562 329.851562 L 366.726562 45.148438 C 366.726562 24.929688 350.28125 8.378906 330.0625 8.378906 Z M 45.148438 8.378906"/><path fill="#E5383B" d="M 313.722656 97.835938 C 313.722656 77.617188 297.277344 61.171875 277.058594 61.171875 C 256.84375 61.171875 240.398438 77.617188 240.398438 97.835938 C 240.398438 118.050781 256.84375 134.496094 277.058594 134.496094 C 297.277344 134.496094 313.722656 118.15625 313.722656 97.835938 Z M 134.496094 277.058594 C 134.496094 256.84375 118.050781 240.398438 97.835938 240.398438 C 77.617188 240.398438 61.171875 256.84375 61.171875 277.058594 C 61.171875 297.277344 77.617188 313.722656 97.835938 313.722656 C 118.050781 313.722656 134.496094 297.382812 134.496094 277.058594 Z M 97.835938 134.496094 C 118.050781 134.496094 134.496094 118.050781 134.496094 97.835938 C 134.496094 77.617188 118.050781 61.171875 97.835938 61.171875 C 77.617188 61.171875 61.171875 77.617188 61.171875 97.835938 C 61.171875 118.050781 77.617188 134.496094 97.835938 134.496094 Z M 277.058594 313.722656 C 297.277344 313.722656 313.722656 297.277344 313.722656 277.058594 C 313.722656 256.84375 297.277344 240.398438 277.058594 240.398438 C 256.84375 240.398438 240.398438 256.84375 240.398438 277.058594 C 240.398438 297.277344 256.84375 313.722656 277.058594 313.722656 Z M 277.058594 313.722656"/></svg>