<svg xmlns="http://www.w3.org/2000/svg" width="375" viewBox="0 0 375 375" height="375" version="1.0"><path fill="#FFF" d="M-37.5 -37.5H412.5V412.5H-37.5z"/><path fill="#FFF" d="M 329.851562 370.808594 L 45.148438 370.808594 C 22.519531 370.808594 4.191406 352.480469 4.191406 329.851562 L 4.191406 45.148438 C 4.191406 22.519531 22.519531 4.191406 45.148438 4.191406 L 329.957031 4.191406 C 352.480469 4.191406 370.808594 22.519531 370.808594 45.148438 L 370.808594 329.957031 C 370.808594 352.480469 352.480469 370.808594 329.851562 370.808594 Z M 329.851562 370.808594"/><path fill="#FFF" d="M 329.851562 375 L 45.148438 375 C 20.214844 375 0 354.785156 0 329.851562 L 0 45.148438 C 0 20.214844 20.214844 0 45.148438 0 L 329.957031 0 C 354.785156 0 375 20.214844 375 45.148438 L 375 329.957031 C 375 354.785156 354.785156 375 329.851562 375 Z M 45.148438 8.378906 C 24.824219 8.378906 8.378906 24.824219 8.378906 45.148438 L 8.378906 329.957031 C 8.378906 350.175781 24.824219 366.621094 45.148438 366.621094 L 329.957031 366.621094 C 350.175781 366.621094 366.726562 350.175781 366.726562 329.851562 L 366.726562 45.148438 C 366.726562 24.929688 350.28125 8.378906 330.0625 8.378906 Z M 45.148438 8.378906"/><path fill="#E5383B" d="M 313.722656 97.835938 C 313.722656 99.035156 313.664062 100.234375 313.546875 101.429688 C 313.429688 102.625 313.25 103.808594 313.019531 104.988281 C 312.785156 106.164062 312.492188 107.328125 312.144531 108.476562 C 311.792969 109.625 311.390625 110.753906 310.929688 111.863281 C 310.472656 112.972656 309.960938 114.058594 309.394531 115.117188 C 308.828125 116.175781 308.210938 117.207031 307.542969 118.203125 C 306.875 119.203125 306.160156 120.164062 305.398438 121.09375 C 304.636719 122.019531 303.832031 122.910156 302.984375 123.757812 C 302.136719 124.609375 301.246094 125.414062 300.316406 126.175781 C 299.390625 126.9375 298.425781 127.652344 297.429688 128.320312 C 296.429688 128.984375 295.402344 129.601562 294.34375 130.167969 C 293.285156 130.734375 292.199219 131.246094 291.089844 131.707031 C 289.980469 132.164062 288.851562 132.570312 287.703125 132.917969 C 286.554688 133.265625 285.390625 133.558594 284.210938 133.792969 C 283.035156 134.027344 281.847656 134.203125 280.652344 134.320312 C 279.457031 134.4375 278.261719 134.496094 277.058594 134.496094 C 275.859375 134.496094 274.660156 134.4375 273.464844 134.320312 C 272.273438 134.203125 271.085938 134.027344 269.90625 133.792969 C 268.730469 133.558594 267.566406 133.265625 266.417969 132.917969 C 265.269531 132.570312 264.140625 132.164062 263.03125 131.707031 C 261.921875 131.246094 260.835938 130.734375 259.777344 130.167969 C 258.71875 129.601562 257.691406 128.984375 256.691406 128.320312 C 255.691406 127.652344 254.730469 126.9375 253.800781 126.175781 C 252.875 125.414062 251.984375 124.609375 251.136719 123.757812 C 250.285156 122.910156 249.480469 122.023438 248.71875 121.09375 C 247.957031 120.164062 247.242188 119.203125 246.578125 118.203125 C 245.910156 117.207031 245.292969 116.175781 244.726562 115.117188 C 244.160156 114.058594 243.648438 112.972656 243.1875 111.863281 C 242.730469 110.753906 242.324219 109.625 241.976562 108.476562 C 241.628906 107.328125 241.335938 106.164062 241.101562 104.988281 C 240.867188 103.808594 240.691406 102.625 240.574219 101.429688 C 240.457031 100.234375 240.398438 99.035156 240.398438 97.835938 C 240.398438 96.632812 240.457031 95.4375 240.574219 94.242188 C 240.691406 93.046875 240.867188 91.859375 241.101562 90.683594 C 241.335938 89.503906 241.628906 88.339844 241.976562 87.191406 C 242.324219 86.042969 242.730469 84.914062 243.1875 83.804688 C 243.648438 82.695312 244.160156 81.613281 244.726562 80.554688 C 245.292969 79.492188 245.910156 78.464844 246.578125 77.46875 C 247.242188 76.46875 247.957031 75.503906 248.71875 74.578125 C 249.480469 73.648438 250.285156 72.761719 251.136719 71.910156 C 251.984375 71.0625 252.875 70.257812 253.800781 69.496094 C 254.730469 68.734375 255.691406 68.019531 256.691406 67.351562 C 257.691406 66.683594 258.71875 66.066406 259.777344 65.503906 C 260.835938 64.9375 261.921875 64.421875 263.03125 63.964844 C 264.140625 63.503906 265.269531 63.101562 266.417969 62.75 C 267.566406 62.402344 268.730469 62.113281 269.90625 61.878906 C 271.085938 61.644531 272.273438 61.46875 273.464844 61.351562 C 274.660156 61.230469 275.859375 61.171875 277.058594 61.171875 C 278.261719 61.171875 279.457031 61.230469 280.652344 61.351562 C 281.847656 61.46875 283.035156 61.644531 284.210938 61.878906 C 285.390625 62.113281 286.554688 62.402344 287.703125 62.75 C 288.851562 63.101562 289.980469 63.503906 291.089844 63.964844 C 292.199219 64.421875 293.285156 64.9375 294.34375 65.503906 C 295.402344 66.066406 296.429688 66.683594 297.429688 67.351562 C 298.425781 68.019531 299.390625 68.734375 300.316406 69.496094 C 301.246094 70.257812 302.136719 71.0625 302.984375 71.910156 C 303.832031 72.761719 304.636719 73.648438 305.398438 74.578125 C 306.160156 75.503906 306.875 76.46875 307.542969 77.46875 C 308.210938 78.464844 308.828125 79.492188 309.394531 80.554688 C 309.960938 81.613281 310.472656 82.695312 310.929688 83.804688 C 311.390625 84.914062 311.792969 86.042969 312.144531 87.191406 C 312.492188 88.339844 312.785156 89.503906 313.019531 90.683594 C 313.25 91.859375 313.429688 93.046875 313.546875 94.242188 C 313.664062 95.4375 313.722656 96.632812 313.722656 97.835938 Z M 313.722656 97.835938"/><path fill="#E5383B" d="M 134.496094 277.058594 C 134.496094 278.261719 134.4375 279.457031 134.320312 280.652344 C 134.203125 281.847656 134.027344 283.035156 133.792969 284.210938 C 133.558594 285.390625 133.265625 286.554688 132.917969 287.703125 C 132.570312 288.851562 132.164062 289.980469 131.707031 291.089844 C 131.246094 292.199219 130.734375 293.285156 130.167969 294.34375 C 129.601562 295.402344 128.984375 296.429688 128.320312 297.429688 C 127.652344 298.425781 126.9375 299.390625 126.175781 300.316406 C 125.414062 301.246094 124.609375 302.136719 123.757812 302.984375 C 122.910156 303.832031 122.023438 304.636719 121.09375 305.398438 C 120.164062 306.160156 119.203125 306.875 118.203125 307.542969 C 117.207031 308.210938 116.175781 308.828125 115.117188 309.394531 C 114.058594 309.960938 112.972656 310.472656 111.863281 310.929688 C 110.753906 311.390625 109.625 311.792969 108.476562 312.144531 C 107.328125 312.492188 106.164062 312.785156 104.988281 313.019531 C 103.808594 313.25 102.625 313.429688 101.429688 313.546875 C 100.234375 313.664062 99.035156 313.722656 97.835938 313.722656 C 96.632812 313.722656 95.4375 313.664062 94.242188 313.546875 C 93.046875 313.429688 91.859375 313.25 90.683594 313.019531 C 89.503906 312.785156 88.339844 312.492188 87.191406 312.144531 C 86.042969 311.792969 84.914062 311.390625 83.804688 310.929688 C 82.695312 310.472656 81.613281 309.960938 80.554688 309.394531 C 79.492188 308.828125 78.464844 308.210938 77.46875 307.542969 C 76.46875 306.875 75.503906 306.160156 74.578125 305.398438 C 73.648438 304.636719 72.761719 303.832031 71.910156 302.984375 C 71.0625 302.136719 70.257812 301.246094 69.496094 300.316406 C 68.734375 299.390625 68.019531 298.425781 67.351562 297.429688 C 66.683594 296.429688 66.066406 295.402344 65.503906 294.34375 C 64.9375 293.285156 64.421875 292.199219 63.964844 291.089844 C 63.503906 289.980469 63.101562 288.851562 62.75 287.703125 C 62.402344 286.554688 62.113281 285.390625 61.878906 284.210938 C 61.644531 283.035156 61.46875 281.847656 61.351562 280.652344 C 61.230469 279.457031 61.171875 278.261719 61.171875 277.058594 C 61.171875 275.859375 61.230469 274.660156 61.351562 273.464844 C 61.46875 272.273438 61.644531 271.085938 61.878906 269.90625 C 62.113281 268.730469 62.402344 267.566406 62.75 266.417969 C 63.101562 265.269531 63.503906 264.140625 63.964844 263.03125 C 64.421875 261.921875 64.9375 260.835938 65.503906 259.777344 C 66.066406 258.71875 66.683594 257.691406 67.351562 256.691406 C 68.019531 255.691406 68.734375 254.730469 69.496094 253.800781 C 70.257812 252.875 71.0625 251.984375 71.910156 251.136719 C 72.761719 250.285156 73.648438 249.480469 74.578125 248.71875 C 75.503906 247.957031 76.46875 247.242188 77.46875 246.578125 C 78.464844 245.910156 79.492188 245.292969 80.554688 244.726562 C 81.613281 244.160156 82.695312 243.648438 83.804688 243.1875 C 84.914062 242.730469 86.042969 242.324219 87.191406 241.976562 C 88.339844 241.628906 89.503906 241.335938 90.683594 241.101562 C 91.859375 240.867188 93.046875 240.691406 94.242188 240.574219 C 95.4375 240.457031 96.632812 240.398438 97.835938 240.398438 C 99.035156 240.398438 100.234375 240.457031 101.429688 240.574219 C 102.625 240.691406 103.808594 240.867188 104.988281 241.101562 C 106.164062 241.335938 107.328125 241.628906 108.476562 241.976562 C 109.625 242.324219 110.753906 242.730469 111.863281 243.1875 C 112.972656 243.648438 114.058594 244.160156 115.117188 244.726562 C 116.175781 245.292969 117.207031 245.910156 118.203125 246.578125 C 119.203125 247.242188 120.164062 247.957031 121.09375 248.71875 C 122.023438 249.480469 122.910156 250.285156 123.757812 251.136719 C 124.609375 251.984375 125.414062 252.875 126.175781 253.800781 C 126.9375 254.730469 127.652344 255.691406 128.320312 256.691406 C 128.984375 257.691406 129.601562 258.71875 130.167969 259.777344 C 130.734375 260.835938 131.246094 261.921875 131.707031 263.03125 C 132.164062 264.140625 132.570312 265.269531 132.917969 266.417969 C 133.265625 267.566406 133.558594 268.730469 133.792969 269.90625 C 134.027344 271.085938 134.203125 272.273438 134.320312 273.464844 C 134.4375 274.660156 134.496094 275.859375 134.496094 277.058594 Z M 134.496094 277.058594"/></svg>