<svg xmlns="http://www.w3.org/2000/svg" width="375" viewBox="0 0 375 375" height="375" version="1.0"><defs><clipPath id="a"><path d="M 0.722656 0 L 374.972656 0 L 374.972656 374.25 L 0.722656 374.25 Z M 0.722656 0"/></clipPath></defs><path fill="#FFF" d="M 104.015625 111.777344 L 254.015625 111.777344 L 254.015625 261.777344 L 104.015625 261.777344 L 104.015625 111.777344"/><path fill="#FFF" d="M 0.722656 0 L 374.972656 0 L 374.972656 374.25 L 0.722656 374.25 L 0.722656 0"/><path fill="#FFF" d="M 329.914062 370.070312 L 45.777344 370.070312 C 23.195312 370.070312 4.902344 351.773438 4.902344 329.195312 L 4.902344 45.054688 C 4.902344 22.476562 23.195312 4.179688 45.777344 4.179688 L 330.019531 4.179688 C 352.496094 4.179688 370.789062 22.476562 370.789062 45.054688 L 370.789062 329.296875 C 370.789062 351.773438 352.496094 370.070312 329.914062 370.070312 Z M 329.914062 370.070312"/><g clip-path="url(#a)"><path fill="#FFF" d="M 329.914062 374.25 L 45.777344 374.25 C 20.898438 374.25 0.722656 354.074219 0.722656 329.195312 L 0.722656 45.054688 C 0.722656 20.175781 20.898438 0 45.777344 0 L 330.019531 0 C 354.796875 0 374.972656 20.175781 374.972656 45.054688 L 374.972656 329.296875 C 374.972656 354.074219 354.796875 374.25 329.914062 374.25 Z M 45.777344 8.363281 C 25.496094 8.363281 9.085938 24.777344 9.085938 45.054688 L 9.085938 329.296875 C 9.085938 349.472656 25.496094 365.886719 45.777344 365.886719 L 330.019531 365.886719 C 350.195312 365.886719 366.710938 349.472656 366.710938 329.195312 L 366.710938 45.054688 C 366.710938 24.878906 350.300781 8.363281 330.125 8.363281 Z M 45.777344 8.363281"/></g><path fill="#E5383B" d="M 224.433594 187.125 C 224.433594 188.324219 224.375 189.519531 224.257812 190.710938 C 224.140625 191.902344 223.964844 193.085938 223.730469 194.261719 C 223.496094 195.4375 223.207031 196.597656 222.859375 197.746094 C 222.511719 198.894531 222.109375 200.019531 221.648438 201.125 C 221.191406 202.234375 220.679688 203.316406 220.113281 204.371094 C 219.550781 205.429688 218.933594 206.457031 218.269531 207.453125 C 217.601562 208.449219 216.890625 209.410156 216.128906 210.335938 C 215.371094 211.261719 214.566406 212.148438 213.71875 212.996094 C 212.871094 213.84375 211.984375 214.648438 211.058594 215.410156 C 210.132812 216.167969 209.171875 216.882812 208.171875 217.546875 C 207.175781 218.214844 206.152344 218.828125 205.09375 219.394531 C 204.035156 219.957031 202.957031 220.46875 201.847656 220.929688 C 200.742188 221.386719 199.613281 221.789062 198.46875 222.136719 C 197.320312 222.484375 196.160156 222.777344 194.984375 223.011719 C 193.808594 223.246094 192.625 223.421875 191.433594 223.539062 C 190.238281 223.65625 189.042969 223.714844 187.847656 223.714844 C 186.648438 223.714844 185.453125 223.65625 184.261719 223.539062 C 183.066406 223.421875 181.882812 223.246094 180.707031 223.011719 C 179.53125 222.777344 178.371094 222.484375 177.226562 222.136719 C 176.078125 221.789062 174.953125 221.386719 173.84375 220.929688 C 172.738281 220.46875 171.65625 219.957031 170.597656 219.394531 C 169.542969 218.828125 168.515625 218.214844 167.519531 217.546875 C 166.523438 216.882812 165.5625 216.167969 164.632812 215.410156 C 163.707031 214.648438 162.820312 213.84375 161.972656 212.996094 C 161.125 212.148438 160.324219 211.261719 159.5625 210.335938 C 158.800781 209.410156 158.089844 208.449219 157.421875 207.453125 C 156.757812 206.457031 156.144531 205.429688 155.578125 204.371094 C 155.011719 203.316406 154.5 202.234375 154.042969 201.125 C 153.585938 200.019531 153.179688 198.894531 152.832031 197.746094 C 152.484375 196.597656 152.195312 195.4375 151.960938 194.261719 C 151.726562 193.085938 151.550781 191.902344 151.433594 190.710938 C 151.316406 189.519531 151.257812 188.324219 151.257812 187.125 C 151.257812 185.925781 151.316406 184.730469 151.433594 183.539062 C 151.550781 182.347656 151.726562 181.164062 151.960938 179.988281 C 152.195312 178.8125 152.484375 177.652344 152.832031 176.503906 C 153.179688 175.355469 153.585938 174.230469 154.042969 173.125 C 154.5 172.015625 155.011719 170.933594 155.578125 169.878906 C 156.144531 168.820312 156.757812 167.792969 157.421875 166.796875 C 158.089844 165.800781 158.800781 164.839844 159.5625 163.914062 C 160.324219 162.988281 161.125 162.101562 161.972656 161.253906 C 162.820312 160.40625 163.707031 159.601562 164.632812 158.839844 C 165.5625 158.082031 166.523438 157.367188 167.519531 156.703125 C 168.515625 156.035156 169.542969 155.421875 170.597656 154.855469 C 171.65625 154.292969 172.738281 153.78125 173.84375 153.320312 C 174.953125 152.863281 176.078125 152.460938 177.226562 152.113281 C 178.371094 151.765625 179.53125 151.472656 180.707031 151.238281 C 181.882812 151.003906 183.066406 150.828125 184.261719 150.710938 C 185.453125 150.59375 186.648438 150.535156 187.847656 150.535156 C 189.042969 150.535156 190.238281 150.59375 191.433594 150.710938 C 192.625 150.828125 193.808594 151.003906 194.984375 151.238281 C 196.160156 151.472656 197.320312 151.765625 198.46875 152.113281 C 199.613281 152.460938 200.742188 152.863281 201.847656 153.320312 C 202.957031 153.78125 204.035156 154.292969 205.09375 154.855469 C 206.152344 155.421875 207.175781 156.035156 208.171875 156.703125 C 209.171875 157.367188 210.132812 158.082031 211.058594 158.839844 C 211.984375 159.601562 212.871094 160.40625 213.71875 161.253906 C 214.566406 162.101562 215.371094 162.988281 216.128906 163.914062 C 216.890625 164.839844 217.601562 165.800781 218.269531 166.796875 C 218.933594 167.792969 219.550781 168.820312 220.113281 169.878906 C 220.679688 170.933594 221.191406 172.015625 221.648438 173.125 C 222.109375 174.230469 222.511719 175.355469 222.859375 176.503906 C 223.207031 177.652344 223.496094 178.8125 223.730469 179.988281 C 223.964844 181.164062 224.140625 182.347656 224.257812 183.539062 C 224.375 184.730469 224.433594 185.925781 224.433594 187.125 Z M 224.433594 187.125"/></svg>