<svg xmlns="http://www.w3.org/2000/svg" width="375" viewBox="0 0 375 375" height="375" version="1.0"><defs><clipPath id="a"><path d="M 0 37.5 L 375 37.5 L 375 340.5 L 0 340.5 Z M 0 37.5"/></clipPath></defs><g clip-path="url(#a)"><path fill="#E5383B" d="M 187.316406 264.589844 L 261.90625 189.925781 L 205.964844 189.925781 L 205.964844 21.925781 L 168.667969 21.925781 L 168.667969 189.925781 L 112.726562 189.925781 Z M 355.144531 21.925781 L 243.261719 21.925781 L 243.261719 58.976562 L 355.144531 58.976562 L 355.144531 320.871094 L 19.488281 320.871094 L 19.488281 58.976562 L 131.375 58.976562 L 131.375 21.925781 L 19.488281 21.925781 C -1.117188 21.925781 -17.804688 38.632812 -17.804688 59.257812 L -17.804688 320.589844 C -17.804688 341.21875 -1.117188 357.925781 19.488281 357.925781 L 355.144531 357.925781 C 375.75 357.925781 392.441406 341.21875 392.441406 320.589844 L 392.441406 59.257812 C 392.441406 38.632812 375.75 21.925781 355.144531 21.925781 Z M 355.144531 21.925781"/></g></svg>