<svg xmlns="http://www.w3.org/2000/svg" width="375" viewBox="0 0 375 375" height="375" version="1.0"><defs><clipPath id="a"><path d="M 1 30.613281 L 374 30.613281 L 374 330.613281 L 1 330.613281 Z M 1 30.613281"/></clipPath></defs><g clip-path="url(#a)"><path fill="#E5383B" d="M 185.625 30.613281 C 148.789062 30.613281 114.742188 44.234375 88.824219 66.0625 C 88.1875 66.585938 87.609375 67.171875 87.085938 67.8125 C 86.566406 68.453125 86.113281 69.140625 85.726562 69.871094 C 85.34375 70.601562 85.035156 71.363281 84.800781 72.152344 C 84.566406 72.945312 84.410156 73.753906 84.335938 74.574219 C 84.261719 75.398438 84.269531 76.21875 84.359375 77.039062 C 84.449219 77.863281 84.617188 78.667969 84.863281 79.453125 C 85.113281 80.242188 85.4375 80.996094 85.835938 81.722656 C 86.230469 82.445312 86.695312 83.121094 87.230469 83.753906 C 87.761719 84.386719 88.351562 84.957031 88.996094 85.472656 C 89.644531 85.988281 90.332031 86.433594 91.066406 86.8125 C 91.800781 87.191406 92.566406 87.492188 93.359375 87.71875 C 94.152344 87.945312 94.964844 88.089844 95.785156 88.15625 C 96.609375 88.222656 97.429688 88.207031 98.25 88.113281 C 99.070312 88.015625 99.875 87.839844 100.660156 87.582031 C 101.445312 87.328125 102.199219 86.996094 102.917969 86.59375 C 103.636719 86.1875 104.308594 85.714844 104.9375 85.175781 C 126.515625 67.003906 154.960938 55.613281 185.625 55.613281 C 250.957031 55.613281 303.832031 104.53125 310.015625 168.113281 L 273.125 168.113281 L 323.125 243.113281 L 373.125 168.113281 L 334.988281 168.113281 C 328.640625 91.046875 264.347656 30.613281 185.625 30.613281 Z M 51.882812 105.613281 L 1.882812 180.613281 L 35.625 180.613281 C 35.625 263.554688 102.679688 330.613281 185.625 330.613281 C 222.460938 330.613281 256.507812 316.988281 282.425781 295.164062 C 283.0625 294.636719 283.640625 294.054688 284.164062 293.414062 C 284.683594 292.773438 285.136719 292.085938 285.523438 291.355469 C 285.90625 290.625 286.214844 289.863281 286.449219 289.070312 C 286.683594 288.277344 286.839844 287.472656 286.914062 286.648438 C 286.988281 285.828125 286.980469 285.003906 286.890625 284.183594 C 286.800781 283.363281 286.632812 282.558594 286.386719 281.769531 C 286.136719 280.984375 285.8125 280.226562 285.414062 279.503906 C 285.019531 278.78125 284.554688 278.101562 284.019531 277.46875 C 283.488281 276.839844 282.898438 276.265625 282.253906 275.75 C 281.609375 275.238281 280.917969 274.789062 280.183594 274.410156 C 279.449219 274.035156 278.683594 273.730469 277.890625 273.503906 C 277.097656 273.277344 276.289062 273.132812 275.464844 273.066406 C 274.640625 273 273.820312 273.015625 273 273.113281 C 272.179688 273.207031 271.375 273.386719 270.589844 273.640625 C 269.804688 273.898438 269.050781 274.226562 268.332031 274.632812 C 267.613281 275.035156 266.941406 275.507812 266.3125 276.046875 C 244.734375 294.21875 216.289062 305.613281 185.625 305.613281 C 116.070312 305.613281 60.625 250.167969 60.625 180.613281 L 101.882812 180.613281 Z M 51.882812 105.613281"/></g></svg>