<svg xmlns="http://www.w3.org/2000/svg" width="375" viewBox="0 0 375 375" height="375" version="1.0"><path fill="#E5383B" d="M 187.5 0 C 84.113281 0 0 84.113281 0 187.5 C 0 290.886719 84.113281 375 187.5 375 C 290.886719 375 375 290.886719 375 187.5 C 375 84.113281 290.886719 0 187.5 0 Z M 187.5 350 C 97.894531 350 25 277.105469 25 187.5 C 25 97.894531 97.894531 25 187.5 25 C 277.105469 25 350 97.894531 350 187.5 C 350 277.105469 277.105469 350 187.5 350 Z M 187.5 350"/><path fill="#E5383B" d="M 252.898438 175 L 200 175 L 200 122.101562 C 200 115.199219 194.402344 109.601562 187.5 109.601562 C 180.597656 109.601562 175 115.199219 175 122.101562 L 175 175 L 122.101562 175 C 115.199219 175 109.601562 180.597656 109.601562 187.5 C 109.601562 194.402344 115.199219 200 122.101562 200 L 175 200 L 175 252.898438 C 175 259.800781 180.597656 265.398438 187.5 265.398438 C 194.402344 265.398438 200 259.800781 200 252.898438 L 200 200 L 252.898438 200 C 259.800781 200 265.398438 194.402344 265.398438 187.5 C 265.398438 180.597656 259.800781 175 252.898438 175 Z M 252.898438 175"/></svg>